# xmcd CD database file
#
# Track frame offsets:
#	150
#	20469
#	38281
#	57241
#	76042
#	97793
#	115048
#	135389
#	153018
#	169572
#	190902
#	211491
#	232453
#	252603
#	272400
#	291732
#
# Disc length: 4163 seconds
#
# Revision: 0
# Processed by: cddbd v1.5.1PL0 Copyright (c) Steve Scherf et al.
# Submitted via: CDex 1.50Beta7
#
DISCID=d0104110
DTITLE=Serie 32 - Los Mejores del Merengue [CD2)
DYEAR=2000
DGENRE=Merengue
TTITLE0=Si tu eres mi hombre y yo tu mujer
TTITLE1=Buscando tus besos
TTITLE2=Ay mujer
TTITLE3=Abusadora
TTITLE4=Me muero por ella
TTITLE5=Besos callejeros
TTITLE6=A donde vayas
TTITLE7=Maquinolandera
TTITLE8=Cuando estes con el
TTITLE9=De tu boca
TTITLE10=Enamorada de ella
TTITLE11=Hola
TTITLE12=Cada dia te amo mas
TTITLE13=Me estremeces
TTITLE14=Esa morena
TTITLE15=De oro
EXTD=YEAR: 2000
EXTT0=
EXTT1=
EXTT2=
EXTT3=
EXTT4=
EXTT5=
EXTT6=
EXTT7=
EXTT8=
EXTT9=
EXTT10=
EXTT11=
EXTT12=
EXTT13=
EXTT14=
EXTT15=
PLAYORDER=
